<svg width="24" height="24" viewBox="0 0 24 24" fill="none" xmlns="http://www.w3.org/2000/svg">
<path d="M16.6097 20.0009C17.9497 20.0109 19.2397 19.5109 20.2297 18.6109C23.4997 15.7509 21.7497 10.0109 17.4397 9.47093C15.8997 0.130925 2.42973 3.67093 5.61973 12.5609" stroke="#E3E3E3" stroke-width="1.5" stroke-miterlimit="10" stroke-linecap="round" stroke-linejoin="round"/>
<path d="M7.27938 12.9708C6.74938 12.7008 6.15938 12.5608 5.56938 12.5708C0.909376 12.9008 0.919376 19.6808 5.56938 20.0108" stroke="#E3E3E3" stroke-width="1.5" stroke-miterlimit="10" stroke-linecap="round" stroke-linejoin="round"/>
<path d="M15.8203 9.89047C16.3403 9.63047 16.9003 9.49047 17.4803 9.48047" stroke="#E3E3E3" stroke-width="1.5" stroke-miterlimit="10" stroke-linecap="round" stroke-linejoin="round"/>
<path d="M9.23105 19.1594H10.2311V21.4894C10.2311 21.8294 10.6611 21.9994 10.8811 21.7394L13.3311 18.9494C13.6311 18.6094 13.5011 18.3294 13.0511 18.3294H12.0511V15.9994C12.0511 15.6594 11.6211 15.4894 11.4011 15.7494L8.95105 18.5394C8.65105 18.8794 8.78105 19.1594 9.23105 19.1594Z" stroke="#E3E3E3" stroke-width="1.5" stroke-miterlimit="10" stroke-linecap="round" stroke-linejoin="round"/>
</svg>
