<svg width="34" height="34" viewBox="0 0 34 34" fill="none" xmlns="http://www.w3.org/2000/svg">
<path d="M3.24609 11.0215V24.8056C3.24609 27.4973 5.15859 28.6023 7.48193 27.2706L10.8111 25.3723C11.5336 24.9615 12.7378 24.919 13.4886 25.3015L20.9261 29.0273C21.6769 29.3956 22.8811 29.3673 23.6036 28.9565L29.7378 25.4431C30.5169 24.9898 31.1686 23.8848 31.1686 22.9781V9.19397C31.1686 6.5023 29.2561 5.3973 26.9328 6.72897L23.6036 8.6273C22.8811 9.03814 21.6769 9.08064 20.9261 8.69814L13.4886 4.98647C12.7378 4.61814 11.5336 4.64647 10.8111 5.0573L4.67693 8.57064C3.88359 9.02397 3.24609 10.129 3.24609 11.0215Z" stroke="#E3E3E3" stroke-width="1.5" stroke-linecap="round" stroke-linejoin="round"/>
<path d="M12.125 5.66602V24.0827" stroke="#E3E3E3" stroke-width="1.5" stroke-linecap="round" stroke-linejoin="round"/>
<path d="M22.2852 9.37891V28.3339" stroke="#E3E3E3" stroke-width="1.5" stroke-linecap="round" stroke-linejoin="round"/>
</svg>
