<svg width="24" height="24" viewBox="0 0 24 24" fill="none" xmlns="http://www.w3.org/2000/svg">
<mask id="mask0_1910_32865" style="mask-type:alpha" maskUnits="userSpaceOnUse" x="0" y="0" width="24" height="24">
<rect width="24" height="24" fill="#D9D9D9"/>
</mask>
<g mask="url(#mask0_1910_32865)">
<path d="M12 21.9883C10.6167 21.9883 9.4375 21.5008 8.4625 20.5258C7.4875 19.5508 7 18.3716 7 16.9883C7 16.1883 7.175 15.4424 7.525 14.7508C7.875 14.0591 8.36667 13.4716 9 12.9883V4.98828C9 4.15495 9.29167 3.44661 9.875 2.86328C10.4583 2.27995 11.1667 1.98828 12 1.98828C12.8333 1.98828 13.5417 2.27995 14.125 2.86328C14.7083 3.44661 15 4.15495 15 4.98828V12.9883C15.6333 13.4716 16.125 14.0591 16.475 14.7508C16.825 15.4424 17 16.1883 17 16.9883C17 18.3716 16.5125 19.5508 15.5375 20.5258C14.5625 21.5008 13.3833 21.9883 12 21.9883ZM10.5 13.4766C9.07426 14.4096 8.47622 15.244 8.4625 16.9883C8.44555 19.1431 10 20.4883 12 20.4766C14.5 20.4883 15.5 18.9883 15.5 16.9883C15.5 14.9883 15 14.4883 13.5 13.4766V9.97656L12 9.98828V8.98828L13.5 8.97656V6.97656L12 6.98828V5.98828L13.5 5.97656V4.97656C13.5 4.69323 13.1917 4.16823 13 3.97656C12.8083 3.7849 12.2833 3.47656 12 3.47656C11.7167 3.47656 11.1917 3.7849 11 3.97656C10.8083 4.16823 10.5 4.69323 10.5 4.97656V13.4766Z" fill="#E3E3E3"/>
<path d="M12 14.9883C11.0237 14.9883 10 16.012 10 16.9883C10 17.9646 11.0237 18.9883 12 18.9883C12.9763 18.9883 14 17.9646 14 16.9883C14 16.012 12.9763 14.9883 12 14.9883Z" fill="#E3E3E3"/>
</g>
</svg>
